<mxfile host="app.diagrams.net" modified="2023-03-30T20:59:15.302Z" agent="Mozilla/5.0 (Windows NT 10.0; Win64; x64; rv:108.0) Gecko/20100101 Firefox/108.0" etag="33CCEQQUetjLzE9-poqh" version="21.1.2" type="device">
  <diagram name="Page-1" id="MN_eYuwgUkHgro4WfV_C">
    <mxGraphModel dx="2508" dy="912" grid="1" gridSize="10" guides="1" tooltips="1" connect="1" arrows="1" fold="1" page="1" pageScale="1" pageWidth="850" pageHeight="1100" math="0" shadow="0">
      <root>
        <mxCell id="0" />
        <mxCell id="1" parent="0" />
        <mxCell id="Ndt5yQN2rLb4QSb5cQsp-1" value="&lt;br&gt;Player/User" style="shape=umlActor;verticalLabelPosition=bottom;verticalAlign=top;html=1;outlineConnect=0;" parent="1" vertex="1">
          <mxGeometry y="160" width="30" height="60" as="geometry" />
        </mxCell>
        <mxCell id="Ndt5yQN2rLb4QSb5cQsp-3" value="" style="rounded=0;whiteSpace=wrap;html=1;" parent="1" vertex="1">
          <mxGeometry x="80" y="115" width="240" height="240" as="geometry" />
        </mxCell>
        <mxCell id="Ndt5yQN2rLb4QSb5cQsp-2" value="" style="endArrow=none;dashed=1;html=1;rounded=0;" parent="1" edge="1">
          <mxGeometry width="50" height="50" relative="1" as="geometry">
            <mxPoint x="310" y="390" as="sourcePoint" />
            <mxPoint x="310" y="110" as="targetPoint" />
          </mxGeometry>
        </mxCell>
        <mxCell id="Ndt5yQN2rLb4QSb5cQsp-8" value="" style="endArrow=none;dashed=1;html=1;rounded=0;" parent="1" edge="1">
          <mxGeometry width="50" height="50" relative="1" as="geometry">
            <mxPoint x="90" y="390" as="sourcePoint" />
            <mxPoint x="90" y="110" as="targetPoint" />
          </mxGeometry>
        </mxCell>
        <mxCell id="Ndt5yQN2rLb4QSb5cQsp-9" value="&lt;u&gt;:System&lt;/u&gt;" style="rounded=0;whiteSpace=wrap;html=1;" parent="1" vertex="1">
          <mxGeometry x="280" y="80" width="60" height="30" as="geometry" />
        </mxCell>
        <mxCell id="Ndt5yQN2rLb4QSb5cQsp-10" value="" style="endArrow=classic;html=1;rounded=0;" parent="1" edge="1">
          <mxGeometry width="50" height="50" relative="1" as="geometry">
            <mxPoint x="90" y="140" as="sourcePoint" />
            <mxPoint x="310" y="140" as="targetPoint" />
          </mxGeometry>
        </mxCell>
        <mxCell id="Ndt5yQN2rLb4QSb5cQsp-11" value="beginGame()" style="text;html=1;align=center;verticalAlign=middle;resizable=0;points=[];autosize=1;strokeColor=none;fillColor=none;" parent="1" vertex="1">
          <mxGeometry x="95" y="140" width="90" height="30" as="geometry" />
        </mxCell>
        <mxCell id="Ndt5yQN2rLb4QSb5cQsp-12" value="" style="endArrow=classic;html=1;rounded=0;" parent="1" edge="1">
          <mxGeometry width="50" height="50" relative="1" as="geometry">
            <mxPoint x="90" y="159" as="sourcePoint" />
            <mxPoint x="310" y="159" as="targetPoint" />
          </mxGeometry>
        </mxCell>
        <mxCell id="Ndt5yQN2rLb4QSb5cQsp-13" value="enterUserName()" style="text;html=1;align=center;verticalAlign=middle;resizable=0;points=[];autosize=1;strokeColor=none;fillColor=none;" parent="1" vertex="1">
          <mxGeometry x="80" y="120" width="120" height="30" as="geometry" />
        </mxCell>
        <mxCell id="Ndt5yQN2rLb4QSb5cQsp-19" value="" style="endArrow=classic;html=1;rounded=0;" parent="1" edge="1">
          <mxGeometry width="50" height="50" relative="1" as="geometry">
            <mxPoint x="90" y="180" as="sourcePoint" />
            <mxPoint x="310" y="180" as="targetPoint" />
          </mxGeometry>
        </mxCell>
        <mxCell id="Ndt5yQN2rLb4QSb5cQsp-20" value="greetCustomer()" style="text;html=1;align=center;verticalAlign=middle;resizable=0;points=[];autosize=1;strokeColor=none;fillColor=none;" parent="1" vertex="1">
          <mxGeometry x="95" y="160" width="110" height="30" as="geometry" />
        </mxCell>
        <mxCell id="Ndt5yQN2rLb4QSb5cQsp-23" value="" style="endArrow=block;dashed=1;endFill=0;endSize=12;html=1;rounded=0;" parent="1" edge="1">
          <mxGeometry width="160" relative="1" as="geometry">
            <mxPoint x="310" y="240" as="sourcePoint" />
            <mxPoint x="90" y="240" as="targetPoint" />
          </mxGeometry>
        </mxCell>
        <mxCell id="Ndt5yQN2rLb4QSb5cQsp-24" value="orderCollected()" style="text;html=1;align=center;verticalAlign=middle;resizable=0;points=[];autosize=1;strokeColor=none;fillColor=none;" parent="1" vertex="1">
          <mxGeometry x="105" y="220" width="110" height="30" as="geometry" />
        </mxCell>
        <mxCell id="Ndt5yQN2rLb4QSb5cQsp-25" value="takeOrder()" style="text;html=1;align=center;verticalAlign=middle;resizable=0;points=[];autosize=1;strokeColor=none;fillColor=none;" parent="1" vertex="1">
          <mxGeometry x="105" y="180" width="80" height="30" as="geometry" />
        </mxCell>
        <mxCell id="Ndt5yQN2rLb4QSb5cQsp-26" value="" style="endArrow=classic;html=1;rounded=0;" parent="1" edge="1">
          <mxGeometry width="50" height="50" relative="1" as="geometry">
            <mxPoint x="90" y="199" as="sourcePoint" />
            <mxPoint x="310" y="199" as="targetPoint" />
          </mxGeometry>
        </mxCell>
        <mxCell id="Ndt5yQN2rLb4QSb5cQsp-30" value="makeOrder()" style="text;html=1;align=center;verticalAlign=middle;resizable=0;points=[];autosize=1;strokeColor=none;fillColor=none;" parent="1" vertex="1">
          <mxGeometry x="105" y="200" width="90" height="30" as="geometry" />
        </mxCell>
        <mxCell id="Ndt5yQN2rLb4QSb5cQsp-31" value="" style="endArrow=classic;html=1;rounded=0;" parent="1" edge="1">
          <mxGeometry width="50" height="50" relative="1" as="geometry">
            <mxPoint x="90" y="220" as="sourcePoint" />
            <mxPoint x="310" y="220" as="targetPoint" />
            <Array as="points">
              <mxPoint x="180" y="220" />
            </Array>
          </mxGeometry>
        </mxCell>
        <mxCell id="Ndt5yQN2rLb4QSb5cQsp-32" value="" style="endArrow=block;dashed=1;endFill=0;endSize=12;html=1;rounded=0;" parent="1" edge="1">
          <mxGeometry width="160" relative="1" as="geometry">
            <mxPoint x="310" y="259.5" as="sourcePoint" />
            <mxPoint x="90" y="259.5" as="targetPoint" />
          </mxGeometry>
        </mxCell>
        <mxCell id="Ndt5yQN2rLb4QSb5cQsp-35" value="customerLeft()" style="text;html=1;align=center;verticalAlign=middle;resizable=0;points=[];autosize=1;strokeColor=none;fillColor=none;" parent="1" vertex="1">
          <mxGeometry x="110" y="240" width="100" height="30" as="geometry" />
        </mxCell>
        <mxCell id="Ndt5yQN2rLb4QSb5cQsp-36" value="" style="endArrow=block;dashed=1;endFill=0;endSize=12;html=1;rounded=0;" parent="1" edge="1">
          <mxGeometry width="160" relative="1" as="geometry">
            <mxPoint x="310" y="280" as="sourcePoint" />
            <mxPoint x="90" y="280" as="targetPoint" />
          </mxGeometry>
        </mxCell>
        <mxCell id="Ndt5yQN2rLb4QSb5cQsp-37" value="customerPaid()" style="text;html=1;align=center;verticalAlign=middle;resizable=0;points=[];autosize=1;strokeColor=none;fillColor=none;" parent="1" vertex="1">
          <mxGeometry x="115" y="260" width="100" height="30" as="geometry" />
        </mxCell>
        <mxCell id="n0PkIssot2RWdr9VY8r9-1" value="" style="endArrow=classic;html=1;rounded=0;" parent="1" edge="1">
          <mxGeometry width="50" height="50" relative="1" as="geometry">
            <mxPoint x="90" y="300" as="sourcePoint" />
            <mxPoint x="310" y="300" as="targetPoint" />
          </mxGeometry>
        </mxCell>
        <mxCell id="n0PkIssot2RWdr9VY8r9-2" value="clearDirtyTable()" style="text;html=1;align=center;verticalAlign=middle;resizable=0;points=[];autosize=1;strokeColor=none;fillColor=none;" parent="1" vertex="1">
          <mxGeometry x="115" y="280" width="110" height="30" as="geometry" />
        </mxCell>
        <mxCell id="n0PkIssot2RWdr9VY8r9-3" value="" style="endArrow=classic;html=1;rounded=0;" parent="1" edge="1">
          <mxGeometry width="50" height="50" relative="1" as="geometry">
            <mxPoint x="90" y="320" as="sourcePoint" />
            <mxPoint x="310" y="320" as="targetPoint" />
          </mxGeometry>
        </mxCell>
        <mxCell id="n0PkIssot2RWdr9VY8r9-4" value="washDirtyPlates()" style="text;html=1;align=center;verticalAlign=middle;resizable=0;points=[];autosize=1;strokeColor=none;fillColor=none;" parent="1" vertex="1">
          <mxGeometry x="105" y="300" width="120" height="30" as="geometry" />
        </mxCell>
        <mxCell id="n0PkIssot2RWdr9VY8r9-5" value="" style="rounded=0;whiteSpace=wrap;html=1;" parent="1" vertex="1">
          <mxGeometry x="70" y="590" width="240" height="300" as="geometry" />
        </mxCell>
        <mxCell id="n0PkIssot2RWdr9VY8r9-7" value="" style="endArrow=none;dashed=1;html=1;rounded=0;" parent="1" edge="1">
          <mxGeometry width="50" height="50" relative="1" as="geometry">
            <mxPoint x="80" y="920" as="sourcePoint" />
            <mxPoint x="80" y="580" as="targetPoint" />
          </mxGeometry>
        </mxCell>
        <mxCell id="n0PkIssot2RWdr9VY8r9-8" value="" style="endArrow=none;dashed=1;html=1;rounded=0;" parent="1" edge="1">
          <mxGeometry width="50" height="50" relative="1" as="geometry">
            <mxPoint x="299.5" y="920" as="sourcePoint" />
            <mxPoint x="299.5" y="580" as="targetPoint" />
          </mxGeometry>
        </mxCell>
        <mxCell id="n0PkIssot2RWdr9VY8r9-9" value="&lt;br&gt;Player/User" style="shape=umlActor;verticalLabelPosition=bottom;verticalAlign=top;html=1;outlineConnect=0;" parent="1" vertex="1">
          <mxGeometry y="660" width="30" height="60" as="geometry" />
        </mxCell>
        <mxCell id="n0PkIssot2RWdr9VY8r9-10" value="&lt;u&gt;:System&lt;/u&gt;" style="rounded=0;whiteSpace=wrap;html=1;" parent="1" vertex="1">
          <mxGeometry x="270" y="550" width="60" height="30" as="geometry" />
        </mxCell>
        <mxCell id="n0PkIssot2RWdr9VY8r9-11" value="System Sequence Diagram Without Tutorial" style="text;html=1;align=center;verticalAlign=middle;resizable=0;points=[];autosize=1;strokeColor=none;fillColor=none;" parent="1" vertex="1">
          <mxGeometry x="325" y="220" width="260" height="30" as="geometry" />
        </mxCell>
        <mxCell id="n0PkIssot2RWdr9VY8r9-12" value="System Sequence Diagram With Tutorial" style="text;html=1;align=center;verticalAlign=middle;resizable=0;points=[];autosize=1;strokeColor=none;fillColor=none;" parent="1" vertex="1">
          <mxGeometry x="330" y="700" width="240" height="30" as="geometry" />
        </mxCell>
        <mxCell id="n0PkIssot2RWdr9VY8r9-13" value="" style="endArrow=classic;html=1;rounded=0;" parent="1" edge="1">
          <mxGeometry width="50" height="50" relative="1" as="geometry">
            <mxPoint x="80" y="610" as="sourcePoint" />
            <mxPoint x="300" y="610" as="targetPoint" />
          </mxGeometry>
        </mxCell>
        <mxCell id="n0PkIssot2RWdr9VY8r9-14" value="enterUserName()" style="text;html=1;align=center;verticalAlign=middle;resizable=0;points=[];autosize=1;strokeColor=none;fillColor=none;" parent="1" vertex="1">
          <mxGeometry x="75" y="590" width="120" height="30" as="geometry" />
        </mxCell>
        <mxCell id="n0PkIssot2RWdr9VY8r9-15" value="" style="endArrow=classic;html=1;rounded=0;" parent="1" edge="1">
          <mxGeometry width="50" height="50" relative="1" as="geometry">
            <mxPoint x="80" y="640" as="sourcePoint" />
            <mxPoint x="300" y="640" as="targetPoint" />
          </mxGeometry>
        </mxCell>
        <mxCell id="n0PkIssot2RWdr9VY8r9-16" value="beginTutorial()" style="text;html=1;align=center;verticalAlign=middle;resizable=0;points=[];autosize=1;strokeColor=none;fillColor=none;" parent="1" vertex="1">
          <mxGeometry x="85" y="620" width="100" height="30" as="geometry" />
        </mxCell>
        <mxCell id="n0PkIssot2RWdr9VY8r9-19" value="" style="endArrow=block;dashed=1;endFill=0;endSize=12;html=1;rounded=0;" parent="1" edge="1">
          <mxGeometry width="160" relative="1" as="geometry">
            <mxPoint x="300" y="670" as="sourcePoint" />
            <mxPoint x="80" y="670" as="targetPoint" />
          </mxGeometry>
        </mxCell>
        <mxCell id="n0PkIssot2RWdr9VY8r9-20" value="welcomeMessage()" style="text;html=1;align=center;verticalAlign=middle;resizable=0;points=[];autosize=1;strokeColor=none;fillColor=none;" parent="1" vertex="1">
          <mxGeometry x="90" y="650" width="130" height="30" as="geometry" />
        </mxCell>
        <mxCell id="n0PkIssot2RWdr9VY8r9-24" value="" style="endArrow=classic;html=1;rounded=0;" parent="1" edge="1">
          <mxGeometry width="50" height="50" relative="1" as="geometry">
            <mxPoint x="80" y="680" as="sourcePoint" />
            <mxPoint x="300" y="680" as="targetPoint" />
          </mxGeometry>
        </mxCell>
        <mxCell id="n0PkIssot2RWdr9VY8r9-25" value="" style="endArrow=classic;html=1;rounded=0;" parent="1" edge="1">
          <mxGeometry width="50" height="50" relative="1" as="geometry">
            <mxPoint x="80" y="701" as="sourcePoint" />
            <mxPoint x="300" y="701" as="targetPoint" />
          </mxGeometry>
        </mxCell>
        <mxCell id="n0PkIssot2RWdr9VY8r9-26" value="greetCustomer()" style="text;html=1;align=center;verticalAlign=middle;resizable=0;points=[];autosize=1;strokeColor=none;fillColor=none;" parent="1" vertex="1">
          <mxGeometry x="85" y="681" width="110" height="30" as="geometry" />
        </mxCell>
        <mxCell id="n0PkIssot2RWdr9VY8r9-27" value="" style="endArrow=block;dashed=1;endFill=0;endSize=12;html=1;rounded=0;" parent="1" edge="1">
          <mxGeometry width="160" relative="1" as="geometry">
            <mxPoint x="300" y="761" as="sourcePoint" />
            <mxPoint x="80" y="761" as="targetPoint" />
          </mxGeometry>
        </mxCell>
        <mxCell id="n0PkIssot2RWdr9VY8r9-28" value="orderCollected()" style="text;html=1;align=center;verticalAlign=middle;resizable=0;points=[];autosize=1;strokeColor=none;fillColor=none;" parent="1" vertex="1">
          <mxGeometry x="95" y="741" width="110" height="30" as="geometry" />
        </mxCell>
        <mxCell id="n0PkIssot2RWdr9VY8r9-29" value="takeOrder()" style="text;html=1;align=center;verticalAlign=middle;resizable=0;points=[];autosize=1;strokeColor=none;fillColor=none;" parent="1" vertex="1">
          <mxGeometry x="95" y="701" width="80" height="30" as="geometry" />
        </mxCell>
        <mxCell id="n0PkIssot2RWdr9VY8r9-30" value="" style="endArrow=classic;html=1;rounded=0;" parent="1" edge="1">
          <mxGeometry width="50" height="50" relative="1" as="geometry">
            <mxPoint x="80" y="720" as="sourcePoint" />
            <mxPoint x="300" y="720" as="targetPoint" />
          </mxGeometry>
        </mxCell>
        <mxCell id="n0PkIssot2RWdr9VY8r9-31" value="makeOrder()" style="text;html=1;align=center;verticalAlign=middle;resizable=0;points=[];autosize=1;strokeColor=none;fillColor=none;" parent="1" vertex="1">
          <mxGeometry x="95" y="721" width="90" height="30" as="geometry" />
        </mxCell>
        <mxCell id="n0PkIssot2RWdr9VY8r9-32" value="" style="endArrow=classic;html=1;rounded=0;" parent="1" edge="1">
          <mxGeometry width="50" height="50" relative="1" as="geometry">
            <mxPoint x="80" y="741" as="sourcePoint" />
            <mxPoint x="300" y="741" as="targetPoint" />
          </mxGeometry>
        </mxCell>
        <mxCell id="n0PkIssot2RWdr9VY8r9-33" value="" style="endArrow=block;dashed=1;endFill=0;endSize=12;html=1;rounded=0;" parent="1" edge="1">
          <mxGeometry width="160" relative="1" as="geometry">
            <mxPoint x="300" y="780.5" as="sourcePoint" />
            <mxPoint x="80" y="780.5" as="targetPoint" />
          </mxGeometry>
        </mxCell>
        <mxCell id="n0PkIssot2RWdr9VY8r9-34" value="customerLeft()" style="text;html=1;align=center;verticalAlign=middle;resizable=0;points=[];autosize=1;strokeColor=none;fillColor=none;" parent="1" vertex="1">
          <mxGeometry x="100" y="761" width="100" height="30" as="geometry" />
        </mxCell>
        <mxCell id="n0PkIssot2RWdr9VY8r9-35" value="" style="endArrow=block;dashed=1;endFill=0;endSize=12;html=1;rounded=0;" parent="1" edge="1">
          <mxGeometry width="160" relative="1" as="geometry">
            <mxPoint x="300" y="801" as="sourcePoint" />
            <mxPoint x="80" y="801" as="targetPoint" />
          </mxGeometry>
        </mxCell>
        <mxCell id="n0PkIssot2RWdr9VY8r9-36" value="customerPaid()" style="text;html=1;align=center;verticalAlign=middle;resizable=0;points=[];autosize=1;strokeColor=none;fillColor=none;" parent="1" vertex="1">
          <mxGeometry x="105" y="781" width="100" height="30" as="geometry" />
        </mxCell>
        <mxCell id="n0PkIssot2RWdr9VY8r9-37" value="" style="endArrow=classic;html=1;rounded=0;" parent="1" edge="1">
          <mxGeometry width="50" height="50" relative="1" as="geometry">
            <mxPoint x="80" y="821" as="sourcePoint" />
            <mxPoint x="300" y="821" as="targetPoint" />
          </mxGeometry>
        </mxCell>
        <mxCell id="n0PkIssot2RWdr9VY8r9-38" value="clearDirtyTable()" style="text;html=1;align=center;verticalAlign=middle;resizable=0;points=[];autosize=1;strokeColor=none;fillColor=none;" parent="1" vertex="1">
          <mxGeometry x="105" y="801" width="110" height="30" as="geometry" />
        </mxCell>
        <mxCell id="n0PkIssot2RWdr9VY8r9-39" value="" style="endArrow=classic;html=1;rounded=0;" parent="1" edge="1">
          <mxGeometry width="50" height="50" relative="1" as="geometry">
            <mxPoint x="80" y="841" as="sourcePoint" />
            <mxPoint x="300" y="841" as="targetPoint" />
          </mxGeometry>
        </mxCell>
        <mxCell id="n0PkIssot2RWdr9VY8r9-40" value="washDirtyPlates()" style="text;html=1;align=center;verticalAlign=middle;resizable=0;points=[];autosize=1;strokeColor=none;fillColor=none;" parent="1" vertex="1">
          <mxGeometry x="95" y="821" width="120" height="30" as="geometry" />
        </mxCell>
        <mxCell id="n0PkIssot2RWdr9VY8r9-41" value="" style="endArrow=block;dashed=1;endFill=0;endSize=12;html=1;rounded=0;" parent="1" edge="1">
          <mxGeometry width="160" relative="1" as="geometry">
            <mxPoint x="295" y="860" as="sourcePoint" />
            <mxPoint x="75" y="860" as="targetPoint" />
          </mxGeometry>
        </mxCell>
        <mxCell id="n0PkIssot2RWdr9VY8r9-42" value="tutorialConcludedMessage()" style="text;html=1;align=center;verticalAlign=middle;resizable=0;points=[];autosize=1;strokeColor=none;fillColor=none;" parent="1" vertex="1">
          <mxGeometry x="90" y="840" width="170" height="30" as="geometry" />
        </mxCell>
        <mxCell id="n0PkIssot2RWdr9VY8r9-44" value="" style="endArrow=classic;html=1;rounded=0;" parent="1" edge="1">
          <mxGeometry width="50" height="50" relative="1" as="geometry">
            <mxPoint x="80" y="880" as="sourcePoint" />
            <mxPoint x="300" y="880" as="targetPoint" />
          </mxGeometry>
        </mxCell>
        <mxCell id="n0PkIssot2RWdr9VY8r9-46" value="beginGame()" style="text;html=1;align=center;verticalAlign=middle;resizable=0;points=[];autosize=1;strokeColor=none;fillColor=none;" parent="1" vertex="1">
          <mxGeometry x="95" y="860" width="90" height="30" as="geometry" />
        </mxCell>
        <mxCell id="x2HkjPIMmRNhByCWoAMr-23" value="" style="whiteSpace=wrap;html=1;aspect=fixed;" parent="1" vertex="1">
          <mxGeometry x="-805" y="130" width="490" height="490" as="geometry" />
        </mxCell>
        <mxCell id="x2HkjPIMmRNhByCWoAMr-24" value="Name:" style="text;html=1;strokeColor=none;fillColor=none;align=center;verticalAlign=middle;whiteSpace=wrap;rounded=0;" parent="1" vertex="1">
          <mxGeometry x="-805" y="150" width="110" height="30" as="geometry" />
        </mxCell>
        <mxCell id="x2HkjPIMmRNhByCWoAMr-25" value="GameStateManager" style="text;html=1;strokeColor=none;fillColor=none;align=center;verticalAlign=middle;whiteSpace=wrap;rounded=0;" parent="1" vertex="1">
          <mxGeometry x="-500" y="150" width="180" height="30" as="geometry" />
        </mxCell>
        <mxCell id="x2HkjPIMmRNhByCWoAMr-26" value="Responsibilities:" style="text;html=1;strokeColor=none;fillColor=none;align=center;verticalAlign=middle;whiteSpace=wrap;rounded=0;" parent="1" vertex="1">
          <mxGeometry x="-790" y="210" width="95" height="30" as="geometry" />
        </mxCell>
        <mxCell id="x2HkjPIMmRNhByCWoAMr-27" value="-Swaps between renovation and dining modes&lt;br&gt;--Calculates the groups of customers and spawns them throughout the day.&lt;br&gt;-Stores game variables such as patience each group has and what foods are available for customers to order" style="text;html=1;strokeColor=none;fillColor=none;align=center;verticalAlign=middle;whiteSpace=wrap;rounded=0;" parent="1" vertex="1">
          <mxGeometry x="-585" y="210" width="255" height="110" as="geometry" />
        </mxCell>
        <mxCell id="x2HkjPIMmRNhByCWoAMr-28" value="Type" style="text;html=1;strokeColor=none;fillColor=none;align=center;verticalAlign=middle;whiteSpace=wrap;rounded=0;" parent="1" vertex="1">
          <mxGeometry x="-790" y="380" width="60" height="30" as="geometry" />
        </mxCell>
        <mxCell id="x2HkjPIMmRNhByCWoAMr-29" value="System" style="text;html=1;strokeColor=none;fillColor=none;align=center;verticalAlign=middle;whiteSpace=wrap;rounded=0;" parent="1" vertex="1">
          <mxGeometry x="-440" y="380" width="60" height="30" as="geometry" />
        </mxCell>
        <mxCell id="x2HkjPIMmRNhByCWoAMr-30" value="Pre-production" style="text;html=1;strokeColor=none;fillColor=none;align=center;verticalAlign=middle;whiteSpace=wrap;rounded=0;" parent="1" vertex="1">
          <mxGeometry x="-790" y="430" width="100" height="30" as="geometry" />
        </mxCell>
        <mxCell id="x2HkjPIMmRNhByCWoAMr-32" value="Player starts the game" style="text;html=1;strokeColor=none;fillColor=none;align=center;verticalAlign=middle;whiteSpace=wrap;rounded=0;" parent="1" vertex="1">
          <mxGeometry x="-570" y="430" width="170" height="30" as="geometry" />
        </mxCell>
        <mxCell id="x2HkjPIMmRNhByCWoAMr-33" value="Post-production" style="text;html=1;strokeColor=none;fillColor=none;align=center;verticalAlign=middle;whiteSpace=wrap;rounded=0;" parent="1" vertex="1">
          <mxGeometry x="-790" y="460" width="90" height="30" as="geometry" />
        </mxCell>
        <mxCell id="x2HkjPIMmRNhByCWoAMr-34" value="&amp;nbsp;At intervals during day, new customer group arrives (Instance creation)&lt;br&gt;&lt;div&gt;Fridge opened, new food item spawns (Instance creation)&lt;/div&gt;&lt;div&gt;Food placed in bin, food gets destroyed (Instance destruction)&lt;br&gt;&lt;/div&gt;" style="text;html=1;strokeColor=none;fillColor=none;align=center;verticalAlign=middle;whiteSpace=wrap;rounded=0;" parent="1" vertex="1">
          <mxGeometry x="-775" y="490" width="425" height="50" as="geometry" />
        </mxCell>
      </root>
    </mxGraphModel>
  </diagram>
</mxfile>
